<svg width="1024" height="1024" viewBox="0 0 1024 1024" fill="none" xmlns="http://www.w3.org/2000/svg">
    <g id="arrows" stroke="#FFFF00" stroke-width="71.4422" stroke-linecap="round" stroke-linejoin="round" stroke-miterlimit="10">
        <path d="m 110.9702,186.22169 h 659.17521 c 79.0627,0 142.88439,63.82169 142.88439,142.88439 v 158.12491"/>
        <path d="M 261.47509,35.721091 110.9702,186.22455 261.47509,336.73134"/>
        <path d="M 913.0298,837.77878 H 253.85459 c -79.0627,0 -142.88439,-63.82169 -142.88439,-142.88438 V 536.76901"/>
        <path d="M 762.52491,988.27891 913.0298,837.77878 762.52491,687.26913"/>
    </g>
    <path id="microphone" fill="#FFFF00"
          d="m 512,608 c 53.02,0 96,-42.98 96,-96 V 352 c 0,-53.02 -42.98,-96 -96,-96 -53.02,0 -96,42.98 -96,96 v 160 c 0,53.02 42.98,96 96,96 z M 672,448 h -16 c -8.84,0 -16,7.16 -16,16 v 48 C 640,586.8 575.51,646.82 499.21,639.38 432.71,632.89 384,573.11 384,506.3 V 464 c 0,-8.84 -7.16,-16 -16,-16 h -16 c -8.84,0 -16,7.16 -16,16 v 40.16 c 0,89.64 63.97,169.55 152,181.69 V 720 h -56 c -8.84,0 -16,7.16 -16,16 v 16 c 0,8.84 7.16,16 16,16 h 160 c 8.84,0 16,-7.16 16,-16 v -16 c 0,-8.84 -7.16,-16 -16,-16 H 536 V 686.23 C 621.71,674.47 688,600.9 688,512 v -48 c 0,-8.84 -7.16,-16 -16,-16 z"/>
</svg>
