<!--
  - JContacts is a simple contact software, written in Kotlin.
  - Copyright (C) 2023 Janosch Lion
  -
  - This program is free software: you can redistribute it and/or modify
  - it under the terms of the GNU General Public License as published by
  - the Free Software Foundation, either version 3 of the License, or
  - (at your option) any later version.
  -
  - This program is distributed in the hope that it will be useful,
  - but WITHOUT ANY WARRANTY; without even the implied warranty of
  - MERCHANTABILITY or FITNESS FOR A PARTICULAR PURPOSE.  See the
  - GNU General Public License for more details.
  -
  - You should have received a copy of the GNU General Public License
  - along with this program.  If not, see <https://www.gnu.org/licenses/>.
  -->

<svg width="128" height="128" viewBox="0 0 128 128" fill="none" xmlns="http://www.w3.org/2000/svg">
    <!-- Border -->
    <circle r="62" cx="50%" cy="50%" fill="url(#gradient)" stroke="#000000" stroke-width="4"/>
    <!-- Avatar -->
    <circle r="31.25" cx="64" cy="47" stroke="#000000" stroke-width="1.5"/>
    <circle r="11" cx="64" cy="28" fill="#000000"/>
    <path fill="#000000"
          d="m 81.220339,65.576271 c 0,14.677669 -34.440678,14.677669 -34.440678,0 C 46.779661,50.898602 54.489469,39 64,39 c 9.510531,0 17.220339,11.898602 17.220339,26.576271 z"/>
    <!-- Text (JetBrains Mono) -->
    <g id="Text" fill="#000000">
        <path
                d="m 25.399979,97.999996 q -1.68,0 -2.64,-0.944 -0.96,-0.944 -0.96,-2.576 h 1.44 q 0,1.072 0.56,1.664 0.576,0.576 1.6,0.576 1.024,0 1.584,-0.576 0.576,-0.592 0.576,-1.664 v -7.008 h -3.28 v -1.312 h 4.72 v 8.32 q 0,1.632 -0.976,2.576 -0.96,0.944 -2.624,0.944 z"/>
        <path
                d="m 35.543985,97.999996 q -1.6,0 -2.528,-0.896 -0.928,-0.896 -0.928,-2.464 v -5.28 q 0,-1.568 0.928,-2.464 0.928,-0.896 2.528,-0.896 1.568,0 2.496,0.912 0.928,0.896 0.928,2.448 h -1.44 q 0,-0.992 -0.528,-1.52 -0.512,-0.544 -1.456,-0.544 -0.944,0 -1.488,0.528 -0.528,0.528 -0.528,1.52 v 5.296 q 0,0.992 0.528,1.536 0.544,0.528 1.488,0.528 0.944,0 1.456,-0.528 0.528,-0.544 0.528,-1.536 h 1.44 q 0,1.552 -0.928,2.464 -0.928,0.896 -2.496,0.896 z"/>
        <path
                d="m 45.079991,97.967996 q -1.6,0 -2.528,-0.896 -0.912,-0.912 -0.912,-2.464 v -2.336 q 0,-1.568 0.912,-2.464 0.928,-0.896 2.528,-0.896 1.6,0 2.512,0.896 0.928,0.896 0.928,2.448 v 2.352 q 0,1.552 -0.928,2.464 -0.912,0.896 -2.512,0.896 z m 0,-1.28 q 0.944,0 1.472,-0.528 0.528,-0.528 0.528,-1.552 v -2.336 q 0,-1.024 -0.528,-1.552 -0.528,-0.528 -1.472,-0.528 -0.928,0 -1.472,0.528 -0.528,0.528 -0.528,1.552 v 2.336 q 0,1.024 0.528,1.552 0.544,0.528 1.472,0.528 z"/>
        <path
                d="m 51.351997,97.839996 v -8.8 h 1.44 v 1.68 h 0.016 q 0.112,-0.88 0.72,-1.36 0.608,-0.48 1.616,-0.48 1.328,0 2.112,0.816 0.784,0.816 0.784,2.224 v 5.92 h -1.44 v -5.76 q 0,-0.944 -0.512,-1.44 -0.496,-0.512 -1.36,-0.512 -0.896,0 -1.424,0.544 -0.512,0.544 -0.512,1.568 v 5.6 z"/>
        <path
                d="m 65.240003,97.839996 q -1.088,0 -1.744,-0.624 -0.656,-0.64 -0.656,-1.696 v -5.168 h -2.48 v -1.312 h 2.48 v -2.48 h 1.44 v 2.48 h 3.52 v 1.312 h -3.52 v 5.168 q 0,0.448 0.256,0.736 0.272,0.272 0.704,0.272 h 2.4 v 1.312 z"/>
        <path
                d="m 73.112009,97.999996 q -1.392,0 -2.192,-0.704 -0.8,-0.72 -0.8,-1.936 0,-1.232 0.8,-1.936 0.8,-0.704 2.16,-0.704 h 2.72 v -0.88 q 0,-0.8 -0.496,-1.248 -0.48,-0.448 -1.344,-0.448 -0.768,0 -1.296,0.336 -0.528,0.336 -0.656,0.88 h -1.44 q 0.08,-0.736 0.528,-1.296 0.464,-0.56 1.2,-0.864 0.752,-0.32 1.664,-0.32 1.52,0 2.4,0.784 0.88,0.784 0.88,2.128 v 6.048 h -1.408 v -1.68 h -0.016 q -0.096,0.848 -0.832,1.344 -0.72,0.496 -1.872,0.496 z m 0.352,-1.136 q 1.024,0 1.68,-0.512 0.656,-0.512 0.656,-1.312 v -1.248 h -2.688 q -0.72,0 -1.136,0.4 -0.416,0.4 -0.416,1.088 0,0.736 0.496,1.168 0.512,0.416 1.408,0.416 z"/>
        <path
                d="m 83.544016,97.999996 q -1.6,0 -2.56,-0.896 -0.944,-0.896 -0.944,-2.464 v -2.4 q 0,-1.568 0.944,-2.464 0.96,-0.896 2.56,-0.896 1.52,0 2.448,0.816 0.928,0.816 0.976,2.224 h -1.44 q -0.048,-0.848 -0.576,-1.296 -0.512,-0.464 -1.408,-0.464 -0.944,0 -1.504,0.544 -0.56,0.528 -0.56,1.52 v 2.416 q 0,0.992 0.56,1.536 0.56,0.544 1.504,0.544 0.896,0 1.408,-0.464 0.528,-0.464 0.576,-1.296 h 1.44 q -0.048,1.408 -0.976,2.224 -0.928,0.816 -2.448,0.816 z"/>
        <path
                d="m 94.040022,97.839996 q -1.088,0 -1.744,-0.624 -0.656,-0.64 -0.656,-1.696 v -5.168 h -2.48 v -1.312 h 2.48 v -2.48 h 1.44 v 2.48 h 3.52 v 1.312 h -3.52 v 5.168 q 0,0.448 0.256,0.736 0.272,0.272 0.704,0.272 h 2.4 v 1.312 z"/>
        <path
                d="m 102.40803,97.967996 q -1.36,0 -2.224,-0.624 -0.864002,-0.624 -0.864002,-1.712 h 1.472002 q 0,0.496 0.464,0.784 0.48,0.272 1.184,0.272 h 0.672 q 0.848,0 1.264,-0.336 0.416,-0.352 0.416,-0.928 0,-0.56 -0.4,-0.88 -0.384,-0.336 -1.12,-0.448 l -1.184,-0.192 q -1.312,-0.224 -1.936,-0.832 -0.624002,-0.608 -0.624002,-1.68 0,-1.2 0.768002,-1.84 0.784,-0.64 2.24,-0.64 h 0.608 q 1.344,0 2.144,0.608 0.816,0.592 0.816,1.584 h -1.472 q 0,-0.416 -0.416,-0.656 -0.4,-0.256 -1.104,-0.256 h -0.608 q -0.752,0 -1.168,0.32 -0.4,0.304 -0.4,0.88 0,0.96 1.36,1.184 l 1.184,0.192 q 1.424,0.224 2.064,0.832 0.656,0.608 0.656,1.76 0,1.216 -0.784,1.92 -0.768,0.688 -2.336,0.688 z"/>
    </g>
    <!-- defs -->
    <defs>
        <radialGradient id="gradient" r="62" cx="50%" cy="50%" gradientUnits="userSpaceOnUse">
            <stop offset="0.4" stop-color="#FFFFFF"/>
            <stop offset="1" stop-color="#000000"/>
        </radialGradient>
    </defs>
</svg>