<svg width="1024" height="1024" viewBox="0 0 1024 1024" fill="none" xmlns="http://www.w3.org/2000/svg">
    <circle r="512" fill="url(#gradient)" cx="512" cy="512"/>
    <!-- Text generated by Inkscape, using JetBrains Mono font. -->
    <g fill="#000000">
        <path id="Character-1-P"
              d="m 188.95981,473.35999 v -116.8 h 37.6 q 16.32,0 25.92,9.44 9.76,9.28 9.76,24.96 0,15.68 -9.76,25.12 -9.6,9.28 -25.92,9.28 h -23.2 v 48 z m 14.4,-60.96 h 23.2 q 9.44,0 15.04,-5.76 5.76,-5.92 5.76,-15.68 0,-9.92 -5.76,-15.68 -5.6,-5.76 -15.04,-5.76 h -23.2 z"/>
        <path id="Character-2-i"
              d="m 283.83987,473.35999 v -13.12 h 31.2 v -61.76 h -28 v -13.12 h 42.4 v 74.88 h 29.6 v 13.12 z m 36.8,-103.84 q -5.28,0 -8.32,-2.72 -3.04,-2.72 -3.04,-7.36 0,-4.8 3.04,-7.52 3.04,-2.88 8.32,-2.88 5.28,0 8.32,2.88 3.04,2.72 3.04,7.52 0,4.64 -3.04,7.36 -3.04,2.72 -8.32,2.72 z"/>
        <path id="Character-3-c"
              d="m 414.87993,474.95999 q -16,0 -25.6,-8.96 -9.44,-8.96 -9.44,-24.64 v -24 q 0,-15.68 9.44,-24.64 9.6,-8.96 25.6,-8.96 15.2,0 24.48,8.16 9.28,8.16 9.76,22.24 h -14.4 q -0.48,-8.48 -5.76,-12.96 -5.12,-4.64 -14.08,-4.64 -9.44,0 -15.04,5.44 -5.6,5.28 -5.6,15.2 v 24.16 q 0,9.92 5.6,15.36 5.6,5.44 15.04,5.44 8.96,0 14.08,-4.64 5.28,-4.64 5.76,-12.96 h 14.4 q -0.48,14.08 -9.76,22.24 -9.28,8.16 -24.48,8.16 z"/>
        <path id="Character-4-t"
              d="m 519.83999,473.35999 q -10.88,0 -17.44,-6.24 -6.56,-6.4 -6.56,-16.96 v -51.68 h -24.8 v -13.12 h 24.8 v -24.8 h 14.4 v 24.8 h 35.2 v 13.12 h -35.2 v 51.68 q 0,4.48 2.56,7.36 2.72,2.72 7.04,2.72 h 24 v 13.12 z"/>
        <path id="Character-5-u"
              d="m 606.08005,474.95999 q -15.2,0 -24.32,-8.96 -9.12,-9.12 -9.12,-24.64 v -56 h 14.4 v 56 q 0,9.92 5.12,15.52 5.12,5.44 13.92,5.44 8.96,0 14.08,-5.44 5.28,-5.6 5.28,-15.52 v -56 h 14.4 v 56 q 0,15.52 -9.28,24.64 -9.28,8.96 -24.48,8.96 z"/>
        <path id="Character-6-r"
              d="m 671.68011,473.35999 v -88 h 14.4 v 16.8 h 0.16 q 1.12,-8.8 7.2,-13.6 6.08,-4.8 16.16,-4.8 13.76,0 21.92,8.8 8.16,8.64 8.16,23.52 v 6.08 h -14.4 v -4.8 q 0,-10.08 -5.12,-15.52 -5.12,-5.6 -14.88,-5.6 -19.2,0 -19.2,21.12 v 56 z"/>
        <path id="Character-7-e"
              d="m 798.24017,474.95999 q -10.4,0 -18.24,-4.16 -7.68,-4.16 -12,-11.68 -4.16,-7.68 -4.16,-17.76 v -24 q 0,-10.24 4.16,-17.76 4.32,-7.52 12,-11.68 7.84,-4.16 18.24,-4.16 10.4,0 18.08,4.16 7.84,4.16 12,11.68 4.32,7.52 4.32,17.76 v 15.52 h -54.72 v 8.48 q 0,10.4 5.28,16 5.28,5.44 15.04,5.44 8.32,0 13.44,-2.88 5.12,-3.04 6.24,-8.96 h 14.4 q -1.44,11.04 -10.88,17.6 -9.28,6.4 -23.2,6.4 z m -20.32,-52.96 h 40.64 v -4.64 q 0,-10.4 -5.28,-16 -5.12,-5.6 -15.04,-5.6 -9.76,0 -15.04,5.6 -5.28,5.6 -5.28,16 z"/>
        <path id="Character-8-G"
              d="m 126.87975,674.95999 q -16,0 -25.28,-8.96 -9.280004,-8.96 -9.280004,-24.64 v -52.8 q 0,-15.68 9.280004,-24.64 9.28,-8.96 25.28,-8.96 15.68,0 24.96,9.12 9.28,8.96 9.28,24.48 h -14.4 q 0,-9.92 -5.28,-15.2 -5.12,-5.44 -14.56,-5.44 -9.44,0 -14.88,5.28 -5.28,5.28 -5.28,15.2 v 52.96 q 0,9.92 5.28,15.36 5.44,5.44 14.88,5.44 9.44,0 14.56,-5.44 5.28,-5.44 5.28,-15.36 v -14.4 h -23.68 v -13.12 h 38.08 v 27.52 q 0,15.52 -9.28,24.64 -9.28,8.96 -24.96,8.96 z"/>
        <path id="Character-9-e"
              d="m 222.23981,674.95999 q -10.4,0 -18.24,-4.16 -7.68,-4.16 -12,-11.68 -4.16,-7.68 -4.16,-17.76 v -24 q 0,-10.24 4.16,-17.76 4.32,-7.52 12,-11.68 7.84,-4.16 18.24,-4.16 10.4,0 18.08,4.16 7.84,4.16 12,11.68 4.32,7.52 4.32,17.76 v 15.52 h -54.72 v 8.48 q 0,10.4 5.28,16 5.28,5.44 15.04,5.44 8.32,0 13.44,-2.88 5.12,-3.04 6.24,-8.96 h 14.4 q -1.44,11.04 -10.88,17.6 -9.28,6.4 -23.2,6.4 z m -20.32,-52.96 h 40.64 v -4.64 q 0,-10.4 -5.28,-16 -5.12,-5.6 -15.04,-5.6 -9.76,0 -15.04,5.6 -5.28,5.6 -5.28,16 z"/>
        <path id="Character-10-n"
              d="m 284.95987,673.35999 v -88 h 14.4 v 16.8 h 0.16 q 1.12,-8.8 7.2,-13.6 6.08,-4.8 16.16,-4.8 13.28,0 21.12,8.16 7.84,8.16 7.84,22.24 v 59.2 h -14.4 v -57.6 q 0,-9.44 -5.12,-14.4 -4.96,-5.12 -13.6,-5.12 -8.96,0 -14.24,5.44 -5.12,5.44 -5.12,15.68 v 56 z"/>
        <path id="Character-11-e"
              d="m 414.23993,674.95999 q -10.4,0 -18.24,-4.16 -7.68,-4.16 -12,-11.68 -4.16,-7.68 -4.16,-17.76 v -24 q 0,-10.24 4.16,-17.76 4.32,-7.52 12,-11.68 7.84,-4.16 18.24,-4.16 10.4,0 18.08,4.16 7.84,4.16 12,11.68 4.32,7.52 4.32,17.76 v 15.52 h -54.72 v 8.48 q 0,10.4 5.28,16 5.28,5.44 15.04,5.44 8.32,0 13.44,-2.88 5.12,-3.04 6.24,-8.96 h 14.4 q -1.44,11.04 -10.88,17.6 -9.28,6.4 -23.2,6.4 z m -20.32,-52.96 h 40.64 v -4.64 q 0,-10.4 -5.28,-16 -5.12,-5.6 -15.04,-5.6 -9.76,0 -15.04,5.6 -5.28,5.6 -5.28,16 z"/>
        <path id="Character-12-r"
              d="m 479.67999,673.35999 v -88 h 14.4 v 16.8 h 0.16 q 1.12,-8.8 7.2,-13.6 6.08,-4.8 16.16,-4.8 13.76,0 21.92,8.8 8.16,8.64 8.16,23.52 v 6.08 h -14.4 v -4.8 q 0,-10.08 -5.12,-15.52 -5.12,-5.6 -14.88,-5.6 -19.2,0 -19.2,21.12 v 56 z"/>
        <path id="Character-13-a"
              d="m 598.56005,674.95999 q -13.92,0 -21.92,-7.04 -8,-7.2 -8,-19.36 0,-12.32 8,-19.36 8,-7.04 21.6,-7.04 h 27.2 v -8.8 q 0,-8 -4.96,-12.48 -4.8,-4.48 -13.44,-4.48 -7.68,0 -12.96,3.36 -5.28,3.36 -6.56,8.8 h -14.4 q 0.8,-7.36 5.28,-12.96 4.64,-5.6 12,-8.64 7.52,-3.2 16.64,-3.2 15.2,0 24,7.84 8.8,7.84 8.8,21.28 v 60.48 h -14.08 v -16.8 h -0.16 q -0.96,8.48 -8.32,13.44 -7.2,4.96 -18.72,4.96 z m 3.52,-11.36 q 10.24,0 16.8,-5.12 6.56,-5.12 6.56,-13.12 v -12.48 h -26.88 q -7.2,0 -11.36,4 -4.16,4 -4.16,10.88 0,7.36 4.96,11.68 5.12,4.16 14.08,4.16 z"/>
        <path id="Character-14-t"
              d="m 711.84011,673.35999 q -10.88,0 -17.44,-6.24 -6.56,-6.4 -6.56,-16.96 v -51.68 h -24.8 v -13.12 h 24.8 v -24.8 h 14.4 v 24.8 h 35.2 v 13.12 h -35.2 v 51.68 q 0,4.48 2.56,7.36 2.72,2.72 7.04,2.72 h 24 v 13.12 z"/>
        <path id="Character-16-o"
              d="m 798.24017,674.63999 q -16,0 -25.28,-8.96 -9.12,-9.12 -9.12,-24.64 v -23.36 q 0,-15.68 9.12,-24.64 9.28,-8.96 25.28,-8.96 16,0 25.12,8.96 9.28,8.96 9.28,24.48 v 23.52 q 0,15.52 -9.28,24.64 -9.12,8.96 -25.12,8.96 z m 0,-12.8 q 9.44,0 14.72,-5.28 5.28,-5.28 5.28,-15.52 v -23.36 q 0,-10.24 -5.28,-15.52 -5.28,-5.28 -14.72,-5.28 -9.28,0 -14.72,5.28 -5.28,5.28 -5.28,15.52 v 23.36 q 0,10.24 5.28,15.52 5.44,5.28 14.72,5.28 z"/>
        <path id="Character-17-r"
              d="m 863.68023,673.35999 v -88 h 14.4 v 16.8 h 0.16 q 1.12,-8.8 7.2,-13.6 6.08,-4.8 16.16,-4.8 13.76,0 21.92,8.8 8.16,8.64 8.16,23.52 v 6.08 h -14.4 v -4.8 q 0,-10.08 -5.12,-15.52 -5.12,-5.6 -14.88,-5.6 -19.2,0 -19.2,21.12 v 56 z"/>
    </g>

    <defs>
        <radialGradient id="gradient" r="1024" cx="20%" cy="20%"
                        gradientUnits="userSpaceOnUse">
            <stop offset="0" stop-color="#0000FF"/>
            <stop offset="1" stop-color="#FFFF00"/>
        </radialGradient>
    </defs>
</svg>